<?xml version="1.0" encoding="iso-8859-1"?>
<!-- Generator: Adobe Illustrator 19.0.0, SVG Export Plug-In . SVG Version: 6.00 Build 0)  -->
<svg version="1.1" id="Capa_1" xmlns="http://www.w3.org/2000/svg" xmlns:xlink="http://www.w3.org/1999/xlink" x="0px" y="0px"
	 viewBox="0 0 512 512" style="enable-background:new 0 0 512 512;" xml:space="preserve">
<g>
	<rect x="35.31" y="17.655" style="fill:#41767F;" width="441.379" height="264.828"/>
	<path style="fill:#F0C419;" d="M158.897,124.177v61.203c0,4.875-3.952,8.828-8.828,8.828s-8.828-3.952-8.828-8.828v-61.203H158.897
		z"/>
	<circle style="fill:#95A5A5;" cx="256" cy="370.759" r="35.31"/>
	<path style="fill:#F29C1F;" d="M203.034,503.172v-46.66c1.379-28.248,24.683-50.444,52.966-50.444s51.587,22.195,52.966,50.444
		v46.66H203.034z"/>
	<circle style="fill:#95A5A5;" cx="423.724" cy="370.759" r="35.31"/>
	<path style="fill:#4482C3;" d="M370.759,503.172v-46.66c1.379-28.248,24.683-50.444,52.966-50.444
		c28.282,0,51.587,22.195,52.966,50.444v46.66H370.759z"/>
	<circle style="fill:#95A5A5;" cx="88.276" cy="370.759" r="35.31"/>
	<path style="fill:#CC66A1;" d="M35.31,503.172v-46.66c0.713-28.548,24.417-51.123,52.966-50.443
		c28.549-0.679,52.252,21.895,52.966,50.443v46.66H35.31z"/>
	<g>
		<path style="fill:#CB8252;" d="M17.655,0h476.69C504.095,0,512,7.904,512,17.655l0,0c0,9.751-7.905,17.655-17.655,17.655H17.655
			C7.904,35.31,0,27.406,0,17.655l0,0C0,7.904,7.904,0,17.655,0z"/>
		<path style="fill:#CB8252;" d="M17.655,264.828h476.69c9.751,0,17.655,7.904,17.655,17.655l0,0
			c0,9.751-7.905,17.655-17.655,17.655H17.655C7.904,300.138,0,292.233,0,282.483l0,0C0,272.732,7.904,264.828,17.655,264.828z"/>
	</g>
	<path style="fill:#35495E;" d="M326.621,146.979v58.527l-43.873,18.626c-17.115,7.15-36.381,7.15-53.496,0l-43.873-18.626v-58.527
		l68.59,29.131c1.283,0.618,2.778,0.618,4.061,0L326.621,146.979z"/>
	<path style="fill:#2C3E50;" d="M366.963,129.854l-40.342,17.126l-68.59,29.131c-1.283,0.618-2.778,0.618-4.061,0l-68.59-29.131
		l-40.342-17.126c-2.322-1.229-3.774-3.641-3.774-6.268s1.452-5.039,3.774-6.268L253.97,71.062c1.283-0.618,2.778-0.618,4.061,0
		l108.932,46.257c2.322,1.229,3.774,3.641,3.774,6.268S369.285,128.625,366.963,129.854z"/>
	<path style="fill:#CB8252;" d="M8.828,476.69h494.345c4.875,0,8.828,3.952,8.828,8.828v17.655c0,4.875-3.952,8.828-8.828,8.828
		H8.828C3.952,512,0,508.048,0,503.172v-17.655C0,480.642,3.952,476.69,8.828,476.69z"/>
</g>
<g>
</g>
<g>
</g>
<g>
</g>
<g>
</g>
<g>
</g>
<g>
</g>
<g>
</g>
<g>
</g>
<g>
</g>
<g>
</g>
<g>
</g>
<g>
</g>
<g>
</g>
<g>
</g>
<g>
</g>
</svg>
