<svg id="Capa_1" enable-background="new 0 0 512 512" height="512" viewBox="0 0 512 512" width="512" xmlns="http://www.w3.org/2000/svg"><g><g><g><path d="m42.66 422.25v89.75h100.086l3.634-93.849-3.634-103.959c-55.981 4.232-100.086 50.994-100.086 108.058z" fill="#80d4ff"/><path d="m293.593 430.427-37.117-116.547h-105.446c-2.787 0-5.55.078-8.284.231v139.753l113.73 6.747z" fill="#ffea80"/></g><g><path d="m469.34 422.25c0-56.789-43.684-103.37-99.281-107.987l-36.177 93.531 36.177 104.206h99.281z" fill="#6daafc"/><path d="m360.97 313.88h-104.494v146.731l113.583-6.726v-139.721c-2.997-.185-6.027-.284-9.089-.284z" fill="#fc6"/><path d="m293.593 500.022-37.117-46.249h-105.446c-2.787 0-5.55.031-8.284.092v58.135h113.73z" fill="#fc6"/><path d="m360.97 453.773h-104.494v58.227h113.583v-58.115c-2.997-.073-6.027-.112-9.089-.112z" fill="#ffb366"/></g></g><g><path d="m256.402 385.561 32.138-48.231-32.138-74.691h-50.578v72.344c0 27.934 22.645 50.578 50.578 50.578z" fill="#ffccc2"/><path d="m306.981 334.983v-72.344h-50.578v122.923c27.933-.001 50.578-22.645 50.578-50.579z" fill="#f7b9b1"/></g><g><path d="m146.533 135.726v49.667c0 60.847 49.175 110.416 109.87 111.073l39.759-89.908-39.759-70.832z" fill="#ffdbd4"/></g><path d="m256.402 135.726v160.74c.407.004.812.016 1.22.016 61.255 0 111.089-49.834 111.089-111.089v-49.667z" fill="#ffccc2"/><g><path d="m277.932 135.031 18.229-32.477-39.759-89.908c-60.694.657-109.87 50.227-109.87 111.073v11.311h131.4z" fill="#bd124c"/></g><path d="m368.711 135.031v-11.311c0-61.254-49.834-111.089-111.089-111.089-.408 0-.813.011-1.22.016v122.384z" fill="#a1073e"/><g><path d="m216.643 0v140.726h39.759l14.599-63.299-14.599-77.427z" fill="#e20f5a"/><path d="m256.402 0h39.759v140.726h-39.759z" fill="#bd124c"/></g><g><path d="m117.276 120.938v30.075h139.126l25.289-15.982-25.289-14.093z" fill="#fd5c5f"/><path d="m256.402 120.938h139.126v30.074h-139.126z" fill="#e20f5a"/></g></g></svg>